<svg width="38" height="44" viewBox="0 0 38 44" fill="none" xmlns="http://www.w3.org/2000/svg">
<path d="M15.8407 22.23L1.08472 21.8412C0.938395 21.8378 0.794178 21.8053 0.660362 21.7454C0.526546 21.6855 0.405777 21.5995 0.305004 21.4923C0.204231 21.385 0.125413 21.2587 0.0731495 21.1206C0.0208862 20.9825 -0.0037953 20.8353 0.000472413 20.6875C-0.000612964 20.5381 0.0285546 20.3901 0.0862283 20.2524C0.143902 20.1148 0.22885 19.9906 0.335821 19.8874C0.442792 19.7842 0.569533 19.7042 0.708252 19.6523C0.846971 19.6004 0.994726 19.5778 1.14243 19.5858L15.8984 19.9746C16.1945 19.9746 16.4784 20.0935 16.6878 20.3049C16.8971 20.5164 17.0147 20.8033 17.0147 21.1023C17.0147 21.4014 16.8971 21.6882 16.6878 21.8997C16.4784 22.1112 16.1945 22.23 15.8984 22.23H15.8407Z" fill="#DDA649"/>
<path d="M36.8131 22.3661L26.5481 22.0615C26.4018 22.0573 26.2577 22.0239 26.1242 21.9632C25.9907 21.9026 25.8704 21.8158 25.7702 21.708C25.67 21.6002 25.5919 21.4734 25.5405 21.335C25.489 21.1965 25.4651 21.0492 25.4702 20.9014C25.4851 20.6045 25.6129 20.3249 25.8268 20.1208C26.0408 19.9168 26.3244 19.804 26.6187 19.8061L36.8837 20.1107C37.1798 20.1107 37.4637 20.2295 37.673 20.441C37.8824 20.6524 38 20.9393 38 21.2384C38 21.5375 37.8824 21.8243 37.673 22.0358C37.4637 22.2473 37.1798 22.3661 36.8837 22.3661H36.8131Z" fill="#DDA649"/>
<path d="M21.3129 15.6972C21.0185 15.6955 20.7364 15.577 20.5276 15.3673C20.3188 15.1576 20.2 14.8734 20.1966 14.5759L20.094 1.13421C20.0939 0.835633 20.2104 0.549103 20.4182 0.33677C20.626 0.124437 20.9083 0.003431 21.2039 1.87426e-05C21.3502 -0.000835525 21.4952 0.0275204 21.6306 0.0834847C21.766 0.139449 21.8891 0.221929 21.9928 0.326129C22.0966 0.43033 22.1789 0.554193 22.2351 0.69065C22.2913 0.827107 22.3202 0.973443 22.3202 1.12123L22.4228 14.5889C22.4245 14.737 22.3973 14.884 22.3428 15.0215C22.2882 15.159 22.2074 15.2842 22.105 15.3901C22.0025 15.4961 21.8804 15.5806 21.7456 15.6388C21.6108 15.697 21.4659 15.7279 21.3193 15.7296L21.3129 15.6972Z" fill="#DDA649"/>
<path d="M21.3966 44C21.1038 44 20.8228 43.8839 20.614 43.6766C20.4052 43.4693 20.2853 43.1875 20.2803 42.8918L20.0621 27.3372C20.0579 27.0381 20.1714 26.7495 20.3778 26.535C20.5841 26.3205 20.8664 26.1975 21.1624 26.1932C21.4585 26.1889 21.7441 26.3037 21.9565 26.5121C22.1688 26.7206 22.2905 27.0057 22.2948 27.3048L22.5129 42.8593C22.5146 43.0074 22.4874 43.1544 22.4329 43.2918C22.3783 43.4293 22.2975 43.5546 22.1951 43.6605C22.0926 43.7664 21.9705 43.8509 21.8357 43.9092C21.7009 43.9674 21.556 43.9983 21.4094 44H21.3966Z" fill="#DDA649"/>
</svg>
