<svg width="60" height="50" viewBox="0 0 60 50" fill="none" xmlns="http://www.w3.org/2000/svg">
<path d="M12.8574 49.9999C11.9167 50.003 10.9789 49.8939 10.064 49.675C3.56772 48.05 -1.06897 40.8189 0.214033 34.1484C1.49704 27.478 8.22065 22.4893 14.9361 23.0418L18.0868 23.2937C18.4038 23.3192 18.7029 23.4511 18.9357 23.6678C19.1686 23.8845 19.3215 24.1735 19.3698 24.488C20.7603 25.3436 21.9667 26.4678 22.9184 27.7948C25.4763 31.2966 26.5969 36.269 25.6874 40.1608C25.2761 41.7818 24.5495 43.3058 23.5491 44.6455C22.5487 45.9853 21.2941 47.1145 19.8571 47.9687C17.7556 49.2784 15.3331 49.9813 12.8574 49.9999ZM13.9374 25.8367C8.85405 25.8367 3.94941 29.7285 2.99121 34.6847C1.97617 39.9496 5.59785 45.6694 10.7299 46.9207C12.0328 47.2088 13.3796 47.2372 14.6935 47.0044C16.0074 46.7716 17.2625 46.2821 18.3873 45.5638C20.6459 44.232 22.2842 42.058 22.9427 39.5189C23.2599 37.774 23.2197 35.9828 22.8247 34.2539C22.4297 32.5249 21.6881 30.8942 20.6447 29.4604C19.9761 28.4675 19.0995 27.632 18.0759 27.0119C17.0523 26.3918 15.9061 26.0019 14.7169 25.8693C14.457 25.8449 14.2378 25.8367 13.9374 25.8367Z" fill="#DDA649"/>
<path d="M51.4068 18C50.7917 18.002 50.1785 17.9293 49.5803 17.7833C45.3327 16.7 42.3011 11.8793 43.1399 7.43229C43.9788 2.98531 48.375 -0.340454 52.7659 0.0278707L54.826 0.195782C55.0333 0.212825 55.2288 0.30071 55.3811 0.445203C55.5333 0.589697 55.6333 0.78235 55.6649 0.992015C56.5741 1.56242 57.3628 2.31185 57.9851 3.19655C59.6575 5.53108 60.3903 8.84601 59.7956 11.4405C59.5267 12.5212 59.0516 13.5372 58.3975 14.4303C57.7434 15.3235 56.9231 16.0764 55.9835 16.6458C54.6094 17.5189 53.0255 17.9875 51.4068 18ZM52.1129 1.89116C48.7892 1.89116 45.5823 4.4857 44.9558 7.78979C44.2921 11.2997 46.6601 15.113 50.0157 15.9471C50.8676 16.1392 51.7482 16.1581 52.6073 16.0029C53.4664 15.8477 54.287 15.5214 55.0224 15.0425C56.4992 14.1546 57.5705 12.7053 58.001 11.0126C58.2084 9.84933 58.1821 8.65521 57.9238 7.50258C57.6656 6.34995 57.1807 5.26278 56.4985 4.30694C56.0613 3.645 55.4881 3.08803 54.8189 2.67462C54.1496 2.26121 53.4002 2.00127 52.6226 1.91283C52.4527 1.89658 52.3093 1.89116 52.1129 1.89116Z" fill="#DDA649"/>
</svg>
